<?xml version="1.0" encoding="UTF-8"?>
<!DOCTYPE svg PUBLIC "-//W3C//DTD SVG 1.1//EN" "http://www.w3.org/Graphics/SVG/1.1/DTD/svg11.dtd">
<svg xmlns="http://www.w3.org/2000/svg" version="1.1" width="70px" height="70px" style="shape-rendering:geometricPrecision; text-rendering:geometricPrecision; image-rendering:optimizeQuality; fill-rule:evenodd; clip-rule:evenodd" xmlns:xlink="http://www.w3.org/1999/xlink">
<g><path style="opacity:0.89" fill="#4cbba4" d="M 67.5,31.5 C 60.8886,26.2263 54.5553,20.5596 48.5,14.5C 48.44,13.9569 48.1067,13.6236 47.5,13.5C 46.6764,16.7848 46.1764,20.1182 46,23.5C 45.0971,10.4935 43.9305,10.4935 42.5,23.5C 42.8204,20.1016 42.487,16.7683 41.5,13.5C 40.8933,13.6236 40.56,13.9569 40.5,14.5C 39.8333,14.5 39.1667,14.5 38.5,14.5C 37.4974,17.3845 37.1641,21.0511 37.5,25.5C 36.9978,22.9154 35.8311,20.582 34,18.5C 33.8091,20.7078 33.3091,22.7078 32.5,24.5C 32.6641,21.8127 32.4974,19.146 32,16.5C 31.2917,15.6195 30.4584,14.9528 29.5,14.5C 25.9657,12.7557 23.2991,13.7557 21.5,17.5C 19.728,21.9369 20.5613,25.9369 24,29.5C 24.3333,37.8333 24.6667,46.1667 25,54.5C 25.6708,55.2524 26.5041,55.5858 27.5,55.5C 30.5,59.5 33.5,63.5 36.5,67.5C 18.5717,67.4093 7.07168,58.7426 2,41.5C -0.0163896,21.5208 8.48361,8.35416 27.5,2C 49.676,-0.0845424 63.0093,9.74879 67.5,31.5 Z"/></g>
<g><path style="opacity:1" fill="#dbd9dd" d="M 29.5,14.5 C 32.0121,18.7058 32.0121,22.8724 29.5,27C 26.975,27.8959 24.8083,27.3959 23,25.5C 21.7475,22.9865 21.2475,20.3198 21.5,17.5C 23.2991,13.7557 25.9657,12.7557 29.5,14.5 Z"/></g>
<g><path style="opacity:1" fill="#cbdfdb" d="M 48.5,14.5 C 48.815,18.3714 48.4816,22.0381 47.5,25.5C 45.8333,24.8333 44.1667,24.1667 42.5,23.5C 43.9305,10.4935 45.0971,10.4935 46,23.5C 46.1764,20.1182 46.6764,16.7848 47.5,13.5C 48.1067,13.6236 48.44,13.9569 48.5,14.5 Z"/></g>
<g><path style="opacity:0.948" fill="#44a994" d="M 48.5,14.5 C 54.5553,20.5596 60.8886,26.2263 67.5,31.5C 67.1857,52.1465 56.8524,64.1465 36.5,67.5C 33.5,63.5 30.5,59.5 27.5,55.5C 28.1174,55.3893 28.6174,55.056 29,54.5C 29.3333,46.1667 29.6667,37.8333 30,29.5C 31.3717,28.0899 32.205,26.4233 32.5,24.5C 33.3091,22.7078 33.8091,20.7078 34,18.5C 35.8311,20.582 36.9978,22.9154 37.5,25.5C 38.1217,26.6266 38.955,27.6266 40,28.5C 40.3333,37.1667 40.6667,45.8333 41,54.5C 42.3333,55.8333 43.6667,55.8333 45,54.5C 45.3333,45.8333 45.6667,37.1667 46,28.5C 47.0386,27.7562 47.5386,26.7562 47.5,25.5C 48.4816,22.0381 48.815,18.3714 48.5,14.5 Z"/></g>
<g><path style="opacity:1" fill="#dbe6e3" d="M 38.5,14.5 C 39.1667,26.5 39.8333,26.5 40.5,14.5C 40.56,13.9569 40.8933,13.6236 41.5,13.5C 42.487,16.7683 42.8204,20.1016 42.5,23.5C 44.1667,24.1667 45.8333,24.8333 47.5,25.5C 47.5386,26.7562 47.0386,27.7562 46,28.5C 45.6667,37.1667 45.3333,45.8333 45,54.5C 43.6667,55.8333 42.3333,55.8333 41,54.5C 40.6667,45.8333 40.3333,37.1667 40,28.5C 38.955,27.6266 38.1217,26.6266 37.5,25.5C 37.1641,21.0511 37.4974,17.3845 38.5,14.5 Z"/></g>
<g><path style="opacity:1" fill="#74bcae" d="M 38.5,14.5 C 39.1667,14.5 39.8333,14.5 40.5,14.5C 39.8333,26.5 39.1667,26.5 38.5,14.5 Z"/></g>
<g><path style="opacity:1" fill="#dfe7e5" d="M 29.5,14.5 C 30.4584,14.9528 31.2917,15.6195 32,16.5C 32.4974,19.146 32.6641,21.8127 32.5,24.5C 32.205,26.4233 31.3717,28.0899 30,29.5C 29.6667,37.8333 29.3333,46.1667 29,54.5C 28.6174,55.056 28.1174,55.3893 27.5,55.5C 26.5041,55.5858 25.6708,55.2524 25,54.5C 24.6667,46.1667 24.3333,37.8333 24,29.5C 20.5613,25.9369 19.728,21.9369 21.5,17.5C 21.2475,20.3198 21.7475,22.9865 23,25.5C 24.8083,27.3959 26.975,27.8959 29.5,27C 32.0121,22.8724 32.0121,18.7058 29.5,14.5 Z"/></g>
</svg>
